<svg xmlns="http://www.w3.org/2000/svg" viewBox="40 30 970 320" role="img" aria-label="HFMC"><g fill="none" stroke="#FFFFFF" stroke-width="24"><path d="M76 322V188L206 64l46 42"/><path d="M334 142V322H160"/></g><g fill="#E9AB3E"><rect x="108" y="176" width="30" height="162"/><rect x="108" y="205" width="192" height="28"/><rect x="270" y="98" width="30" height="192"/></g><g fill="none" stroke="#FFFFFF" stroke-width="28"><path d="M399 128V335M385 142H518M399 232H506"/><path d="M983 174A90 90 0 1 0 983 290"/></g><polygon fill="#FFFFFF" points="560,335 560,128 594,128 664,252 734,128 769,128 769,335 741,335 741,184 676,298 652,298 588,184 588,335"/></svg>